<svg width="64" height="64" viewBox="0 0 64 64" fill="none" xmlns="http://www.w3.org/2000/svg">
  <!-- OpenAI Official Logo - 6-lobed interwoven knot on white -->
  <rect width="64" height="64" fill="white" rx="8"/>
  
  <g transform="translate(32, 32)">
    <!-- 6-lobed interwoven knot - each petal passes over/under -->
    <!-- Top petal -->
    <path d="M 0,-18 C 3,-18 5,-16 6,-13 C 7,-10 6,-7 4,-5 C 2,-3 0,-2 -2,-3 C -4,-4 -5,-7 -4,-10 C -3,-13 -1,-15 0,-16 C 1,-17 0,-18 0,-18" 
          fill="black" 
          stroke="black" 
          stroke-width="2"/>
    
    <!-- Top-right petal -->
    <path d="M 6,-13 C 9,-12 12,-9 13,-6 C 14,-3 13,0 11,2 C 9,4 6,5 4,4 C 2,3 1,0 2,-3 C 3,-6 5,-9 6,-11 C 6,-12 6,-13 6,-13" 
          fill="black" 
          stroke="black" 
          stroke-width="2"/>
    
    <!-- Bottom-right petal -->
    <path d="M 13,-6 C 14,-3 15,0 14,3 C 13,6 11,8 8,9 C 5,10 2,9 1,6 C 0,3 1,0 3,-2 C 5,-4 8,-5 11,-4 C 12,-5 13,-6 13,-6" 
          fill="black" 
          stroke="black" 
          stroke-width="2"/>
    
    <!-- Bottom petal -->
    <path d="M 14,3 C 13,6 11,9 8,11 C 5,13 2,13 0,11 C -2,9 -3,6 -2,3 C -1,0 1,-2 4,-1 C 7,0 9,2 11,4 C 12,3 14,3 14,3" 
          fill="black" 
          stroke="black" 
          stroke-width="2"/>
    
    <!-- Bottom-left petal -->
    <path d="M 8,11 C 5,13 2,14 -1,13 C -4,12 -6,9 -5,6 C -4,3 -2,1 1,2 C 4,3 6,5 7,7 C 7,8 8,10 8,11" 
          fill="black" 
          stroke="black" 
          stroke-width="2"/>
    
    <!-- Top-left petal -->
    <path d="M -1,13 C -4,12 -7,9 -8,6 C -9,3 -8,0 -6,-2 C -4,-4 -1,-5 2,-4 C 5,-3 7,-1 6,2 C 5,5 3,7 0,8 C -1,9 -1,11 -1,13" 
          fill="black" 
          stroke="black" 
          stroke-width="2"/>
    
    <!-- Center hexagon (empty space) -->
    <polygon points="0,-8 7,-4 7,4 0,8 -7,4 -7,-4" 
             fill="white"/>
  </g>
</svg>
